<?xml version="1.0" encoding="utf-8"?>
<svg width="40" height="40" xmlns="http://www.w3.org/2000/svg">
  <g fill-rule="nonzero" fill="none">
    <rect width="40" height="40"/>
    <path d="M 33.232 10.797 C 44.956 27.973 29.225 43.827 13.213 37.854 L 34.307 1.636 L 34.39 1.676 L 20.86 33.565 C 21.52 33.461 22.068 33.401 22.603 33.285 C 27.169 32.296 30.835 28.343 31.556 23.704 C 31.888 21.686 31.676 19.616 30.943 17.708 C 30.725 17.192 30.745 16.607 30.996 16.107 C 31.715 14.513 32.516 12.484 33.232 10.797 Z" fill="#293686"/>
    <path d="M 22.658 5.547 C 2.354 1.843 -4.872 25.142 8.185 35.478 L 30.59 0.055 L 30.517 0 L 8.45 26.706 C 8.238 26.071 8.039 25.556 7.895 25.03 C 6.67 20.522 8.488 15.449 12.275 12.675 C 13.914 11.449 15.849 10.68 17.882 10.446 C 18.441 10.402 18.953 10.116 19.282 9.662 C 20.358 8.29 21.491 6.956 22.658 5.547 Z" fill="#94C840"/>
  </g>
</svg>